<?xml version="1.0" encoding="UTF-8"?>
<svg id="_レイヤー_2" data-name="レイヤー 2" xmlns="http://www.w3.org/2000/svg" viewBox="0 0 230.34 101.85">
  <defs>
    <style>
      .cls-1 {
        fill: #fff;
        stroke: #f7f8f8;
        stroke-linejoin: round;
        stroke-width: 5px;
      }

      .cls-2 {
        fill: #0e1734;
        stroke-width: 0px;
      }
    </style>
  </defs>
  <g id="_レイヤー_10" data-name="レイヤー 10">
    <g>
      <rect class="cls-1" x="82.13" y="2.5" width="19.84" height="73.19"/>
      <polygon class="cls-1" points="113.75 48.11 161.44 48.11 161.44 58.02 113.75 58.02 113.75 76.06 164.88 76.06 164.88 30.08 117.2 30.08 117.2 20.53 164.88 20.53 164.88 2.5 113.75 2.5 113.75 48.11"/>
      <polygon class="cls-1" points="227.84 20.53 227.84 2.5 176.72 2.5 176.72 76.06 227.84 76.06 227.84 58.02 180.16 58.02 180.16 20.53 227.84 20.53"/>
      <polygon class="cls-1" points="37.08 44.66 35.79 44.66 22.34 2.5 2.5 2.5 2.5 75.69 22.34 75.69 22.34 13.82 33.3 48.11 39.55 48.11 50.5 13.83 50.5 75.69 70.34 75.69 70.34 2.5 50.5 2.5 37.08 44.66"/>
      <g>
        <path class="cls-1" d="m2.5,82.78h3.15l1.59,5.85,1.58-5.85h3.16v13.34h-2.27v-10.69l-1.41,5.84h-2.1l-1.43-5.84v10.69h-2.27v-13.34Z"/>
        <path class="cls-1" d="m23.62,95.64c-.61.25-1.23.44-1.86.56-.63.12-1.3.19-2,.19-1.67,0-2.95-.45-3.84-1.35-.88-.9-1.33-2.19-1.33-3.87s.43-2.92,1.28-3.87c.85-.95,2.01-1.42,3.49-1.42s2.64.44,3.45,1.32,1.23,2.12,1.23,3.71v1.06h-6.78c0,.79.24,1.37.7,1.76.46.39,1.14.58,2.06.58.6,0,1.19-.09,1.78-.26s1.19-.45,1.83-.82v2.4Zm-2.22-5.63c-.01-.69-.19-1.21-.53-1.57s-.85-.53-1.52-.53c-.6,0-1.08.18-1.44.55s-.57.89-.64,1.56h4.12Z"/>
        <path class="cls-1" d="m25.75,86.12h5.18v8h3.25v2.01h-9.14v-2.01h3.26v-5.99h-2.57v-2.01Zm2.57-4.87h2.62v3.06h-2.62v-3.06Z"/>
        <path class="cls-1" d="m41.86,87.54v-5.32h2.61v13.91h-2.61v-1.48c-.28.58-.64,1.01-1.09,1.3-.44.29-.97.44-1.57.44-1.14,0-2.03-.46-2.66-1.38-.63-.92-.95-2.21-.95-3.88s.32-2.99.96-3.9c.64-.91,1.55-1.36,2.74-1.36.54,0,1.02.14,1.44.42.43.28.8.69,1.12,1.25Zm-3.65,3.61c0,.97.16,1.72.48,2.27s.77.82,1.33.82,1.01-.27,1.34-.82.49-1.3.49-2.27-.16-1.72-.49-2.27-.77-.82-1.34-.82-1.01.27-1.33.82-.48,1.3-.48,2.27Z"/>
        <path class="cls-1" d="m55.66,95.64c-.61.25-1.23.44-1.86.56-.63.12-1.3.19-2,.19-1.67,0-2.95-.45-3.84-1.35-.88-.9-1.33-2.19-1.33-3.87s.43-2.92,1.28-3.87c.85-.95,2.01-1.42,3.49-1.42s2.64.44,3.45,1.32,1.23,2.12,1.23,3.71v1.06h-6.78c0,.79.24,1.37.7,1.76.46.39,1.14.58,2.06.58.6,0,1.19-.09,1.78-.26s1.19-.45,1.83-.82v2.4Zm-2.22-5.63c-.01-.69-.19-1.21-.53-1.57s-.85-.53-1.52-.53c-.6,0-1.08.18-1.44.55s-.57.89-.64,1.56h4.12Z"/>
        <path class="cls-1" d="m66.41,89.63v6.5h-2.6v-6.1c0-.73-.1-1.25-.31-1.56-.21-.31-.54-.47-1.01-.47s-.84.21-1.11.63c-.27.42-.41,1.01-.41,1.76v5.73h-2.6v-10.01h2.6v1.5c.18-.55.5-.98.95-1.29.45-.3.99-.46,1.62-.46.95,0,1.66.31,2.15.94.48.63.72,1.57.72,2.81Z"/>
      </g>
      <g>
        <path class="cls-1" d="m74.46,84.76v-2.32h7.95v2.32h-2.65v8.7h2.65v2.32h-7.95v-2.32h2.66v-8.7h-2.66Z"/>
        <path class="cls-1" d="m93.52,89.29v6.5h-2.6v-6.1c0-.73-.1-1.25-.31-1.56-.21-.31-.54-.47-1.01-.47s-.84.21-1.11.63c-.27.42-.41,1.01-.41,1.76v5.73h-2.6v-10.01h2.6v1.5c.18-.55.5-.98.95-1.29.45-.3.99-.46,1.62-.46.95,0,1.66.31,2.15.94.48.63.72,1.57.72,2.81Z"/>
        <path class="cls-1" d="m100.55,84.9v.88h3.07v2.01h-3.07v8h-2.62v-8h-2.43v-2.01h2.43v-.7c0-1.2.25-2.04.75-2.5.5-.46,1.43-.7,2.79-.7h2.15v2.01h-2.05c-.39,0-.66.07-.8.21-.14.14-.22.41-.23.8Z"/>
        <path class="cls-1" d="m104.82,90.79c0-1.61.42-2.89,1.26-3.84.84-.94,1.96-1.42,3.37-1.42s2.55.47,3.38,1.42c.84.94,1.26,2.22,1.26,3.84s-.42,2.9-1.26,3.84c-.84.94-1.97,1.42-3.38,1.42s-2.54-.47-3.37-1.42c-.84-.94-1.26-2.22-1.26-3.84Zm4.63-3.13c-.63,0-1.12.28-1.48.83-.36.55-.54,1.32-.54,2.3s.18,1.75.54,2.3.85.83,1.48.83,1.13-.28,1.48-.83.54-1.32.54-2.3-.18-1.75-.54-2.3c-.36-.55-.85-.83-1.48-.83Z"/>
      </g>
      <g>
        <path class="cls-1" d="m125.08,89.7c-1.33-.51-2.23-1.04-2.7-1.6-.47-.56-.71-1.31-.71-2.25,0-1.21.39-2.16,1.16-2.85.77-.69,1.84-1.04,3.19-1.04.61,0,1.23.07,1.84.21.61.14,1.22.35,1.82.62v2.57c-.57-.4-1.14-.7-1.73-.91-.58-.21-1.16-.31-1.73-.31-.64,0-1.13.13-1.47.38-.34.26-.51.62-.51,1.1,0,.37.12.67.37.92.25.24.76.51,1.55.8l1.14.43c1.07.39,1.86.91,2.37,1.56s.76,1.47.76,2.46c0,1.35-.4,2.35-1.19,3.02-.8.66-2,1-3.61,1-.66,0-1.32-.08-1.99-.24s-1.31-.39-1.93-.7v-2.73c.7.5,1.38.87,2.04,1.12.66.24,1.31.37,1.95.37s1.15-.15,1.51-.44.54-.71.54-1.24c0-.4-.12-.75-.36-1.05-.24-.3-.58-.54-1.04-.71l-1.3-.49Z"/>
        <path class="cls-1" d="m136.87,96.64c-.35.94-.77,1.63-1.27,2.06-.49.43-1.09.65-1.79.65h-2.16v-1.99h1.06c.54,0,.93-.09,1.18-.27.25-.18.5-.6.76-1.26l.2-.54-3.81-9.73h2.75l2.29,6.5,2.19-6.5h2.75l-4.16,11.09Z"/>
        <path class="cls-1" d="m149.37,85.86v2.29c-.48-.31-.99-.54-1.51-.7s-1.04-.24-1.57-.24c-.58,0-1.03.08-1.32.25s-.45.42-.45.76c0,.48.64.86,1.91,1.16l.1.03.75.18c.95.23,1.65.59,2.1,1.09.44.5.67,1.18.67,2.04,0,1.03-.34,1.8-1.01,2.32s-1.69.77-3.05.77c-.6,0-1.22-.05-1.85-.16-.63-.1-1.27-.26-1.92-.47v-2.29c.58.33,1.17.58,1.76.75.6.17,1.18.26,1.74.26.61,0,1.08-.09,1.39-.27s.47-.44.47-.78-.11-.59-.34-.77-.76-.37-1.6-.57l-.72-.16c-1-.23-1.73-.58-2.19-1.06-.46-.48-.69-1.13-.69-1.94,0-.96.35-1.72,1.05-2.25.7-.54,1.68-.8,2.94-.8.57,0,1.13.05,1.69.14.56.09,1.11.23,1.64.42Z"/>
        <path class="cls-1" d="m156.68,82.7v2.84h3.42v2.01h-3.42v4.74c0,.45.11.77.33.96s.58.29,1.09.29h2.01v2.01h-2.2c-1.5,0-2.52-.24-3.05-.72s-.8-1.37-.8-2.67v-4.61h-2.56v-2.01h2.56v-2.84h2.62Z"/>
        <path class="cls-1" d="m170.36,95.06c-.61.25-1.23.44-1.86.56-.63.12-1.3.19-2,.19-1.67,0-2.95-.45-3.84-1.35-.88-.9-1.33-2.19-1.33-3.87s.43-2.92,1.28-3.87c.85-.95,2.01-1.42,3.49-1.42s2.64.44,3.45,1.32,1.23,2.12,1.23,3.71v1.06h-6.78c0,.79.24,1.37.7,1.76.46.39,1.14.58,2.06.58.6,0,1.19-.09,1.78-.26s1.19-.45,1.83-.82v2.4Zm-2.22-5.63c-.01-.69-.19-1.21-.53-1.57s-.85-.53-1.52-.53c-.6,0-1.08.18-1.44.55s-.57.89-.64,1.56h4.12Z"/>
        <path class="cls-1" d="m177.7,86.55c.2-.42.45-.74.75-.94.3-.2.68-.3,1.12-.3.86,0,1.46.3,1.79.89.33.6.5,1.83.5,3.72v5.64h-2.15v-6.43c0-.75-.06-1.24-.17-1.49-.11-.25-.32-.37-.62-.37s-.51.13-.63.38c-.12.26-.18.75-.18,1.48v6.43h-2.12v-6.43c0-.73-.06-1.23-.18-1.48-.12-.26-.33-.38-.63-.38s-.5.12-.62.37c-.11.25-.17.75-.17,1.49v6.43h-2.15v-10.01h1.9v1.04c.15-.39.39-.7.72-.93s.69-.34,1.1-.34.77.12,1.11.36.54.54.61.88Z"/>
      </g>
      <g>
        <path class="cls-1" d="m196.27,95.27c-.42.21-.85.38-1.31.48-.46.11-.94.16-1.45.16-1.8,0-3.17-.59-4.12-1.78-.95-1.19-1.42-2.9-1.42-5.14s.47-3.96,1.42-5.15c.95-1.19,2.32-1.78,4.12-1.78.51,0,.99.05,1.46.16.47.11.9.27,1.31.48v2.93c-.45-.42-.89-.72-1.32-.92-.43-.19-.87-.29-1.32-.29-.97,0-1.69.38-2.19,1.15-.49.77-.74,1.9-.74,3.41s.25,2.64.74,3.4c.49.77,1.22,1.15,2.19,1.15.45,0,.89-.1,1.32-.29.43-.19.87-.5,1.32-.92v2.93Z"/>
        <path class="cls-1" d="m201.09,91.48v-7.72h-2.65v-2.01h5.27v9.73c0,.79.12,1.34.37,1.67s.66.49,1.24.49h2.09v2.01h-2.82c-1.25,0-2.14-.32-2.68-.97-.54-.64-.81-1.71-.81-3.21Z"/>
        <path class="cls-1" d="m209.06,92.16v-6.52h2.62v6.11c0,.72.1,1.24.3,1.55.2.31.54.47,1.01.47s.84-.21,1.1-.63c.27-.42.4-1,.4-1.75v-5.75h2.62v10.01h-2.62v-1.48c-.18.55-.5.98-.94,1.29-.44.3-.98.46-1.6.46-.95,0-1.67-.32-2.16-.95-.49-.63-.73-1.57-.73-2.81Z"/>
        <path class="cls-1" d="m221.58,87.06c.32-.55.7-.97,1.12-1.25.43-.28.91-.42,1.44-.42,1.19,0,2.1.45,2.74,1.36.64.91.96,2.21.96,3.9s-.32,2.96-.95,3.88c-.63.92-1.52,1.38-2.66,1.38-.6,0-1.13-.15-1.57-.44-.45-.29-.81-.73-1.08-1.31v1.48h-2.61v-13.91h2.61v5.32Zm3.65,3.61c0-.97-.16-1.72-.48-2.27s-.77-.82-1.33-.82-1.01.27-1.34.82-.49,1.3-.49,2.27.16,1.72.49,2.27.77.82,1.34.82,1.01-.27,1.33-.82.48-1.3.48-2.27Z"/>
      </g>
    </g>
    <g>
      <rect class="cls-2" x="82.13" y="2.5" width="19.84" height="73.19"/>
      <polygon class="cls-2" points="113.75 48.11 161.44 48.11 161.44 58.02 113.75 58.02 113.75 76.06 164.88 76.06 164.88 30.08 117.2 30.08 117.2 20.53 164.88 20.53 164.88 2.5 113.75 2.5 113.75 48.11"/>
      <polygon class="cls-2" points="227.84 20.53 227.84 2.5 176.72 2.5 176.72 76.06 227.84 76.06 227.84 58.02 180.16 58.02 180.16 20.53 227.84 20.53"/>
      <polygon class="cls-2" points="37.08 44.66 35.79 44.66 22.34 2.5 2.5 2.5 2.5 75.69 22.34 75.69 22.34 13.82 33.3 48.11 39.55 48.11 50.5 13.83 50.5 75.69 70.34 75.69 70.34 2.5 50.5 2.5 37.08 44.66"/>
      <g>
        <path class="cls-2" d="m2.5,82.78h3.15l1.59,5.85,1.58-5.85h3.16v13.34h-2.27v-10.69l-1.41,5.84h-2.1l-1.43-5.84v10.69h-2.27v-13.34Z"/>
        <path class="cls-2" d="m23.62,95.64c-.61.25-1.23.44-1.86.56-.63.12-1.3.19-2,.19-1.67,0-2.95-.45-3.84-1.35-.88-.9-1.33-2.19-1.33-3.87s.43-2.92,1.28-3.87c.85-.95,2.01-1.42,3.49-1.42s2.64.44,3.45,1.32,1.23,2.12,1.23,3.71v1.06h-6.78c0,.79.24,1.37.7,1.76.46.39,1.14.58,2.06.58.6,0,1.19-.09,1.78-.26s1.19-.45,1.83-.82v2.4Zm-2.22-5.63c-.01-.69-.19-1.21-.53-1.57s-.85-.53-1.52-.53c-.6,0-1.08.18-1.44.55s-.57.89-.64,1.56h4.12Z"/>
        <path class="cls-2" d="m25.75,86.12h5.18v8h3.25v2.01h-9.14v-2.01h3.26v-5.99h-2.57v-2.01Zm2.57-4.87h2.62v3.06h-2.62v-3.06Z"/>
        <path class="cls-2" d="m41.86,87.54v-5.32h2.61v13.91h-2.61v-1.48c-.28.58-.64,1.01-1.09,1.3-.44.29-.97.44-1.57.44-1.14,0-2.03-.46-2.66-1.38-.63-.92-.95-2.21-.95-3.88s.32-2.99.96-3.9c.64-.91,1.55-1.36,2.74-1.36.54,0,1.02.14,1.44.42.43.28.8.69,1.12,1.25Zm-3.65,3.61c0,.97.16,1.72.48,2.27s.77.82,1.33.82,1.01-.27,1.34-.82.49-1.3.49-2.27-.16-1.72-.49-2.27-.77-.82-1.34-.82-1.01.27-1.33.82-.48,1.3-.48,2.27Z"/>
        <path class="cls-2" d="m55.66,95.64c-.61.25-1.23.44-1.86.56-.63.12-1.3.19-2,.19-1.67,0-2.95-.45-3.84-1.35-.88-.9-1.33-2.19-1.33-3.87s.43-2.92,1.28-3.87c.85-.95,2.01-1.42,3.49-1.42s2.64.44,3.45,1.32,1.23,2.12,1.23,3.71v1.06h-6.78c0,.79.24,1.37.7,1.76.46.39,1.14.58,2.06.58.6,0,1.19-.09,1.78-.26s1.19-.45,1.83-.82v2.4Zm-2.22-5.63c-.01-.69-.19-1.21-.53-1.57s-.85-.53-1.52-.53c-.6,0-1.08.18-1.44.55s-.57.89-.64,1.56h4.12Z"/>
        <path class="cls-2" d="m66.41,89.63v6.5h-2.6v-6.1c0-.73-.1-1.25-.31-1.56-.21-.31-.54-.47-1.01-.47s-.84.21-1.11.63c-.27.42-.41,1.01-.41,1.76v5.73h-2.6v-10.01h2.6v1.5c.18-.55.5-.98.95-1.29.45-.3.99-.46,1.62-.46.95,0,1.66.31,2.15.94.48.63.72,1.57.72,2.81Z"/>
      </g>
      <g>
        <path class="cls-2" d="m74.46,84.76v-2.32h7.95v2.32h-2.65v8.7h2.65v2.32h-7.95v-2.32h2.66v-8.7h-2.66Z"/>
        <path class="cls-2" d="m93.52,89.29v6.5h-2.6v-6.1c0-.73-.1-1.25-.31-1.56-.21-.31-.54-.47-1.01-.47s-.84.21-1.11.63c-.27.42-.41,1.01-.41,1.76v5.73h-2.6v-10.01h2.6v1.5c.18-.55.5-.98.95-1.29.45-.3.99-.46,1.62-.46.95,0,1.66.31,2.15.94.48.63.72,1.57.72,2.81Z"/>
        <path class="cls-2" d="m100.55,84.9v.88h3.07v2.01h-3.07v8h-2.62v-8h-2.43v-2.01h2.43v-.7c0-1.2.25-2.04.75-2.5.5-.46,1.43-.7,2.79-.7h2.15v2.01h-2.05c-.39,0-.66.07-.8.21-.14.14-.22.41-.23.8Z"/>
        <path class="cls-2" d="m104.82,90.79c0-1.61.42-2.89,1.26-3.84.84-.94,1.96-1.42,3.37-1.42s2.55.47,3.38,1.42c.84.94,1.26,2.22,1.26,3.84s-.42,2.9-1.26,3.84c-.84.94-1.97,1.42-3.38,1.42s-2.54-.47-3.37-1.42c-.84-.94-1.26-2.22-1.26-3.84Zm4.63-3.13c-.63,0-1.12.28-1.48.83-.36.55-.54,1.32-.54,2.3s.18,1.75.54,2.3.85.83,1.48.83,1.13-.28,1.48-.83.54-1.32.54-2.3-.18-1.75-.54-2.3c-.36-.55-.85-.83-1.48-.83Z"/>
      </g>
      <g>
        <path class="cls-2" d="m125.08,89.7c-1.33-.51-2.23-1.04-2.7-1.6-.47-.56-.71-1.31-.71-2.25,0-1.21.39-2.16,1.16-2.85.77-.69,1.84-1.04,3.19-1.04.61,0,1.23.07,1.84.21.61.14,1.22.35,1.82.62v2.57c-.57-.4-1.14-.7-1.73-.91-.58-.21-1.16-.31-1.73-.31-.64,0-1.13.13-1.47.38-.34.26-.51.62-.51,1.1,0,.37.12.67.37.92.25.24.76.51,1.55.8l1.14.43c1.07.39,1.86.91,2.37,1.56s.76,1.47.76,2.46c0,1.35-.4,2.35-1.19,3.02-.8.66-2,1-3.61,1-.66,0-1.32-.08-1.99-.24s-1.31-.39-1.93-.7v-2.73c.7.5,1.38.87,2.04,1.12.66.24,1.31.37,1.95.37s1.15-.15,1.51-.44.54-.71.54-1.24c0-.4-.12-.75-.36-1.05-.24-.3-.58-.54-1.04-.71l-1.3-.49Z"/>
        <path class="cls-2" d="m136.87,96.64c-.35.94-.77,1.63-1.27,2.06-.49.43-1.09.65-1.79.65h-2.16v-1.99h1.06c.54,0,.93-.09,1.18-.27.25-.18.5-.6.76-1.26l.2-.54-3.81-9.73h2.75l2.29,6.5,2.19-6.5h2.75l-4.16,11.09Z"/>
        <path class="cls-2" d="m149.37,85.86v2.29c-.48-.31-.99-.54-1.51-.7s-1.04-.24-1.57-.24c-.58,0-1.03.08-1.32.25s-.45.42-.45.76c0,.48.64.86,1.91,1.16l.1.03.75.18c.95.23,1.65.59,2.1,1.09.44.5.67,1.18.67,2.04,0,1.03-.34,1.8-1.01,2.32s-1.69.77-3.05.77c-.6,0-1.22-.05-1.85-.16-.63-.1-1.27-.26-1.92-.47v-2.29c.58.33,1.17.58,1.76.75.6.17,1.18.26,1.74.26.61,0,1.08-.09,1.39-.27s.47-.44.47-.78-.11-.59-.34-.77-.76-.37-1.6-.57l-.72-.16c-1-.23-1.73-.58-2.19-1.06-.46-.48-.69-1.13-.69-1.94,0-.96.35-1.72,1.05-2.25.7-.54,1.68-.8,2.94-.8.57,0,1.13.05,1.69.14.56.09,1.11.23,1.64.42Z"/>
        <path class="cls-2" d="m156.68,82.7v2.84h3.42v2.01h-3.42v4.74c0,.45.11.77.33.96s.58.29,1.09.29h2.01v2.01h-2.2c-1.5,0-2.52-.24-3.05-.72s-.8-1.37-.8-2.67v-4.61h-2.56v-2.01h2.56v-2.84h2.62Z"/>
        <path class="cls-2" d="m170.36,95.06c-.61.25-1.23.44-1.86.56-.63.12-1.3.19-2,.19-1.67,0-2.95-.45-3.84-1.35-.88-.9-1.33-2.19-1.33-3.87s.43-2.92,1.28-3.87c.85-.95,2.01-1.42,3.49-1.42s2.64.44,3.45,1.32,1.23,2.12,1.23,3.71v1.06h-6.78c0,.79.24,1.37.7,1.76.46.39,1.14.58,2.06.58.6,0,1.19-.09,1.78-.26s1.19-.45,1.83-.82v2.4Zm-2.22-5.63c-.01-.69-.19-1.21-.53-1.57s-.85-.53-1.52-.53c-.6,0-1.08.18-1.44.55s-.57.89-.64,1.56h4.12Z"/>
        <path class="cls-2" d="m177.7,86.55c.2-.42.45-.74.75-.94.3-.2.68-.3,1.12-.3.86,0,1.46.3,1.79.89.33.6.5,1.83.5,3.72v5.64h-2.15v-6.43c0-.75-.06-1.24-.17-1.49-.11-.25-.32-.37-.62-.37s-.51.13-.63.38c-.12.26-.18.75-.18,1.48v6.43h-2.12v-6.43c0-.73-.06-1.23-.18-1.48-.12-.26-.33-.38-.63-.38s-.5.12-.62.37c-.11.25-.17.75-.17,1.49v6.43h-2.15v-10.01h1.9v1.04c.15-.39.39-.7.72-.93s.69-.34,1.1-.34.77.12,1.11.36.54.54.61.88Z"/>
      </g>
      <g>
        <path class="cls-2" d="m196.27,95.27c-.42.21-.85.38-1.31.48-.46.11-.94.16-1.45.16-1.8,0-3.17-.59-4.12-1.78-.95-1.19-1.42-2.9-1.42-5.14s.47-3.96,1.42-5.15c.95-1.19,2.32-1.78,4.12-1.78.51,0,.99.05,1.46.16.47.11.9.27,1.31.48v2.93c-.45-.42-.89-.72-1.32-.92-.43-.19-.87-.29-1.32-.29-.97,0-1.69.38-2.19,1.15-.49.77-.74,1.9-.74,3.41s.25,2.64.74,3.4c.49.77,1.22,1.15,2.19,1.15.45,0,.89-.1,1.32-.29.43-.19.87-.5,1.32-.92v2.93Z"/>
        <path class="cls-2" d="m201.09,91.48v-7.72h-2.65v-2.01h5.27v9.73c0,.79.12,1.34.37,1.67s.66.49,1.24.49h2.09v2.01h-2.82c-1.25,0-2.14-.32-2.68-.97-.54-.64-.81-1.71-.81-3.21Z"/>
        <path class="cls-2" d="m209.06,92.16v-6.52h2.62v6.11c0,.72.1,1.24.3,1.55.2.31.54.47,1.01.47s.84-.21,1.1-.63c.27-.42.4-1,.4-1.75v-5.75h2.62v10.01h-2.62v-1.48c-.18.55-.5.98-.94,1.29-.44.3-.98.46-1.6.46-.95,0-1.67-.32-2.16-.95-.49-.63-.73-1.57-.73-2.81Z"/>
        <path class="cls-2" d="m221.58,87.06c.32-.55.7-.97,1.12-1.25.43-.28.91-.42,1.44-.42,1.19,0,2.1.45,2.74,1.36.64.91.96,2.21.96,3.9s-.32,2.96-.95,3.88c-.63.92-1.52,1.38-2.66,1.38-.6,0-1.13-.15-1.57-.44-.45-.29-.81-.73-1.08-1.31v1.48h-2.61v-13.91h2.61v5.32Zm3.65,3.61c0-.97-.16-1.72-.48-2.27s-.77-.82-1.33-.82-1.01.27-1.34.82-.49,1.3-.49,2.27.16,1.72.49,2.27.77.82,1.34.82,1.01-.27,1.33-.82.48-1.3.48-2.27Z"/>
      </g>
    </g>
  </g>
</svg>